<svg version="1.1" id="Layer_1" xmlns="http://www.w3.org/2000/svg" x="0" y="0" viewBox="0 0 487.1 54" xml:space="preserve"><style>.st0{fill:none;stroke:#ffcd4e;stroke-width:4;stroke-linecap:round;stroke-linejoin:round}</style><path class="st0" d="M210.8 50.8c7.9 0 18.3-5.9 30.1-5.9 6.2 0 8.2.8 12.7 2.5 9.2 3.4 21.3 1.7 31.5.2 6.7-1 12.2-2.9 20.7-2.7 8.6.2 16.3 2.4 19.8 3.6 6 2.1 22.2 2 29.7 1.3 6.5-.6 11.2-2.2 18.7-2.4 12.9-.4 20.4-.5 31.5 1.3 5.9.9 12.2 2.2 18.7 2.2 8.2 0 15.4-3 24.1-3 5.1 0 9.4.2 14.1 1 4.1.7 6.8 2.3 10.7 3M2.2 51.4c7.1-3.2 17-6.5 28.8-6.5 6.2 0 8.2.8 12.7 2.5 9.2 3.4 21.3 1.7 31.5.2 6.7-1 12.2-2.9 20.7-2.7 8.6.2 16.3 2.4 19.8 3.6 6 2.1 22.2 2 29.7 1.3 6.5-.6 11.2-2.2 18.7-2.4 12.9-.4 20.4-.5 31.5 1.3 5.9.9 8.7 2.1 15.1 2.1M459.3 8.9L463 2M472.4 17.1l5.6-5.5M476.5 31.8l7.7-1.2"/></svg>