<svg xml:space="preserve" viewBox="0 0 100 100" y="0" x="0" xmlns="http://www.w3.org/2000/svg" id="圖層_1" version="1.1"
     style="height: 100%; width: 100%; background: rgb(255, 255, 255);" width="200px" height="200px"><g class="ldl-scale" style="transform-origin: 50% 50%; transform: rotate(0deg) scale(0.8, 0.8);"><g class="ldl-ani"><g class="ldl-layer"><g class="ldl-ani" style="transform-origin: 50px 50px; transform: scale(0.91); animation: 5.55556s linear -4.16667s infinite normal forwards running breath-6eafb55b-7701-47f1-8fe0-d8838beab1ed;"><circle fill="#333" r="40" cy="50" cx="50" style="fill: rgb(51, 51, 51);"></circle></g></g><g
        class="ldl-layer"><g class="ldl-ani" style="transform-origin: 50px 50px; transform: scale(0.91); animation: 5.55556s linear -5.55556s infinite normal forwards running breath-6eafb55b-7701-47f1-8fe0-d8838beab1ed;"><path fill="#fff" d="M62.483 34.407l-7.505-4.333a1.323 1.323 0 0 0-1.807.484l-.19.328a.737.737 0 0 1-1.004.269l-.375-.217a.732.732 0 0 1-.269-1.005 1.324 1.324 0 0 0-.484-1.807l-3.377-1.95a1.323 1.323 0 0 0-1.807.484l-4.658 8.068a1.324 1.324 0 0 0 .484 1.807l3.377 1.95a1.322 1.322 0 0 0 1.807-.484.735.735 0 0 1 1.004-.269l.375.217a.732.732 0 0 1 .269 1.005l-.189.328a1.322 1.322 0 0 0 .485 1.806l.637.368-1.793 3.106a2.255 2.255 0 0 0-.354.059 2.253 2.253 0 0 0-1.377 1.057L32.593 68.434a2.27 2.27 0 0 0 .83 3.098l3.747 2.164a2.265 2.265 0 0 0 3.098-.832L53.406 50.11a2.26 2.26 0 0 0-.021-2.282l1.726-2.99 1.012.584a1.323 1.323 0 0 0 1.807-.484l1.564-2.709c2.079 1.504 2.592 2.676 3.317 4.331.192.439.393.896.63 1.381a1.927 1.927 0 0 0 2.013 1.082c.91-.12 1.643-.823 1.823-1.749.908-4.655.957-9.436-4.794-12.867z" style="fill: rgb(255, 255, 255);"></path></g></g><metadata
        xmlns:d="https://loading.io/stock/"><d:name>hammer</d:name>
    <d:tags>hammer,forge,workshop,nail,hit,hand tool,sledge,strike</d:tags>
    <d:license>by</d:license>
    <d:slug>n06fd5</d:slug></metadata></g></g></svg>