<svg width="25" height="25" viewBox="0 0 25 25" fill="none" xmlns="http://www.w3.org/2000/svg">
<g clip-path="url(#clip0_1_164)">
<path style="mix-blend-mode:screen" d="M9.33002 7C9.33002 6.82741 9.19011 6.6875 9.01752 6.6875C7.98198 6.6875 7.14252 5.84804 7.14252 4.8125C7.14252 4.63991 7.00261 4.5 6.83002 4.5C6.65743 4.5 6.51752 4.63991 6.51752 4.8125C6.51752 5.84804 5.67806 6.6875 4.64252 6.6875C4.46993 6.6875 4.33002 6.82741 4.33002 7C4.33002 7.17259 4.46993 7.3125 4.64252 7.3125C5.67806 7.3125 6.51752 8.15196 6.51752 9.1875C6.51752 9.36009 6.65743 9.5 6.83002 9.5C7.00261 9.5 7.14252 9.36009 7.14252 9.1875C7.14252 8.15196 7.98198 7.3125 9.01752 7.3125C9.19011 7.3125 9.33002 7.17259 9.33002 7Z" fill="url(#paint0_linear_1_164)"/>
<path d="M9.33002 7C9.33002 6.82741 9.19011 6.6875 9.01752 6.6875C7.98198 6.6875 7.14252 5.84804 7.14252 4.8125C7.14252 4.63991 7.00261 4.5 6.83002 4.5C6.65743 4.5 6.51752 4.63991 6.51752 4.8125C6.51752 5.84804 5.67806 6.6875 4.64252 6.6875C4.46993 6.6875 4.33002 6.82741 4.33002 7C4.33002 7.17259 4.46993 7.3125 4.64252 7.3125C5.67806 7.3125 6.51752 8.15196 6.51752 9.1875C6.51752 9.36009 6.65743 9.5 6.83002 9.5C7.00261 9.5 7.14252 9.36009 7.14252 9.1875C7.14252 8.15196 7.98198 7.3125 9.01752 7.3125C9.19011 7.3125 9.33002 7.17259 9.33002 7Z" fill="white" fill-opacity="0.5"/>
<path style="mix-blend-mode:screen" d="M16.83 6.5C16.83 6.22386 16.6061 6 16.33 6C16.0539 6 15.83 6.22386 15.83 6.5C15.83 8.98488 13.8152 11 11.33 11C11.0539 11 10.83 11.2239 10.83 11.5C10.83 11.7761 11.0539 12 11.33 12C13.8153 12 15.83 14.0142 15.83 16.5C15.83 16.7761 16.0539 17 16.33 17C16.6061 17 16.83 16.7761 16.83 16.5C16.83 14.0141 18.8441 12 21.33 12C21.6061 12 21.83 11.7761 21.83 11.5C21.83 11.2239 21.6061 11 21.33 11C18.8442 11 16.83 8.98492 16.83 6.5Z" fill="url(#paint1_linear_1_164)"/>
<path d="M16.83 6.5C16.83 6.22386 16.6061 6 16.33 6C16.0539 6 15.83 6.22386 15.83 6.5C15.83 8.98488 13.8152 11 11.33 11C11.0539 11 10.83 11.2239 10.83 11.5C10.83 11.7761 11.0539 12 11.33 12C13.8153 12 15.83 14.0142 15.83 16.5C15.83 16.7761 16.0539 17 16.33 17C16.6061 17 16.83 16.7761 16.83 16.5C16.83 14.0141 18.8441 12 21.33 12C21.6061 12 21.83 11.7761 21.83 11.5C21.83 11.2239 21.6061 11 21.33 11C18.8442 11 16.83 8.98492 16.83 6.5Z" fill="white" fill-opacity="0.5"/>
<path style="mix-blend-mode:screen" d="M7.83002 13C7.83002 12.7239 7.60616 12.5 7.33002 12.5C7.05388 12.5 6.83002 12.7239 6.83002 13C6.83002 14.6569 5.48688 16 3.83002 16C3.55388 16 3.33002 16.2239 3.33002 16.5C3.33002 16.7761 3.55388 17 3.83002 17C5.48688 17 6.83002 18.3431 6.83002 20C6.83002 20.2761 7.05388 20.5 7.33002 20.5C7.60616 20.5 7.83002 20.2761 7.83002 20C7.83002 18.3431 9.17316 17 10.83 17C11.1061 17 11.33 16.7761 11.33 16.5C11.33 16.2239 11.1061 16 10.83 16C9.17316 16 7.83002 14.6569 7.83002 13Z" fill="url(#paint2_linear_1_164)"/>
<path d="M7.83002 13C7.83002 12.7239 7.60616 12.5 7.33002 12.5C7.05388 12.5 6.83002 12.7239 6.83002 13C6.83002 14.6569 5.48688 16 3.83002 16C3.55388 16 3.33002 16.2239 3.33002 16.5C3.33002 16.7761 3.55388 17 3.83002 17C5.48688 17 6.83002 18.3431 6.83002 20C6.83002 20.2761 7.05388 20.5 7.33002 20.5C7.60616 20.5 7.83002 20.2761 7.83002 20C7.83002 18.3431 9.17316 17 10.83 17C11.1061 17 11.33 16.7761 11.33 16.5C11.33 16.2239 11.1061 16 10.83 16C9.17316 16 7.83002 14.6569 7.83002 13Z" fill="white" fill-opacity="0.5"/>
</g>
<defs>
<linearGradient id="paint0_linear_1_164" x1="3.33002" y1="20.5" x2="21.83" y2="20.5025" gradientUnits="userSpaceOnUse">
<stop stop-color="#E59CFF"/>
<stop offset="0.5" stop-color="#BA9CFF"/>
<stop offset="1" stop-color="#9CB2FF"/>
</linearGradient>
<linearGradient id="paint1_linear_1_164" x1="3.33002" y1="20.5" x2="21.83" y2="20.5025" gradientUnits="userSpaceOnUse">
<stop stop-color="#E59CFF"/>
<stop offset="0.5" stop-color="#BA9CFF"/>
<stop offset="1" stop-color="#9CB2FF"/>
</linearGradient>
<linearGradient id="paint2_linear_1_164" x1="3.33002" y1="20.5" x2="21.83" y2="20.5025" gradientUnits="userSpaceOnUse">
<stop stop-color="#E59CFF"/>
<stop offset="0.5" stop-color="#BA9CFF"/>
<stop offset="1" stop-color="#9CB2FF"/>
</linearGradient>
<clipPath id="clip0_1_164">
<rect width="24" height="24" fill="white" transform="translate(0.330017 0.5)"/>
</clipPath>
</defs>
</svg>
